<svg width="25" height="23" viewBox="0 0 25 23" fill="none" xmlns="http://www.w3.org/2000/svg">
<path d="M0 17V0H25V23L19 17H0Z" fill="#1CFEC2"/>
<path d="M6.03346 11.5673C5.48419 11.5455 5.0348 11.3952 4.68342 11.116C4.61636 11.0627 4.45656 10.9028 4.40295 10.8354C4.26046 10.6562 4.16359 10.4818 4.09897 10.2883C3.90014 9.6928 4.00247 8.91131 4.39167 8.05363C4.7249 7.31936 5.23909 6.5911 6.13617 5.58248C6.26831 5.43406 6.66183 5 6.66437 5C6.66531 5 6.64387 5.03715 6.61688 5.08239C6.38362 5.47309 6.18404 5.93329 6.07532 6.3317C5.90066 6.97098 5.92173 7.5196 6.13701 7.945C6.28553 8.23807 6.54013 8.49192 6.82643 8.63225C7.32764 8.87782 8.06144 8.89814 8.95758 8.69169C9.01928 8.6774 12.0766 7.86581 15.7516 6.88812C19.4267 5.91034 22.434 5.11098 22.4345 5.11164C22.4355 5.11249 13.8963 8.76646 9.4635 10.6621C8.76148 10.9622 8.57375 11.038 8.24372 11.1539C7.40006 11.4502 6.64434 11.5915 6.03346 11.5673Z" fill="black"/>
</svg>